trial_1_ID.mot
nRows=6
nColumns=42

name trial_1_ID.mot
datacolumns 42
datarows 6
range 2.9900000000 3.0400000000
endheader
time	pelvis_tilt_moment	pelvis_list_moment	pelvis_rotation_moment	pelvis_tx_force	pelvis_ty_force	pelvis_tz_force	hip_flexion_r_moment	hip_adduction_r_moment	hip_rotation_r_moment	knee_angle_r_moment	knee_vv_r_moment	knee_rot_r_moment	ankle_angle_r_moment	subtalar_angle_r_moment	mtp_angle_r_moment	hip_flexion_l_moment	hip_adduction_l_moment	hip_rotation_l_moment	knee_angle_l_moment	knee_vv_l_moment	knee_rot_l_moment	ankle_angle_l_moment	subtalar_angle_l_moment	mtp_angle_l_moment	lumbar_extension_moment	lumbar_bending_moment	lumbar_rotation_moment	arm_flex_r_moment	arm_add_r_moment	arm_rot_r_moment	elbow_flex_r_moment	pro_sup_r_moment	wrist_flex_r_moment	wrist_dev_r_moment	arm_flex_l_moment	arm_add_l_moment	arm_rot_l_moment	elbow_flex_l_moment	pro_sup_l_moment	wrist_flex_l_moment	wrist_dev_l_moment
        2.9900000000	      -12.7143100800	        7.1360567500	       -3.4033619600	      -16.7826655100	       -4.2471476400	      -21.0858171900	      -15.2437910500	        8.5964126700	       -2.1589515900	       -7.4178064900	        5.4243901200	       -1.5482044400	        5.6373504500	       -0.9926386200	        0.0377698800	       11.2059560200	      -40.8170836100	       -2.3675975400	      -22.1535322100	       18.1492623400	        4.1922032400	      -69.3284766500	       11.1336724100	        0.0257743000	       13.4142885200	       -1.9214519500	        2.2117599600	        0.6414044500	       -1.6843074900	       -0.0661958500	       -0.1344388700	       -0.0204761200	       -0.0531643100	       -0.0241044100	       -0.9569260300	       -1.6029329300	        0.0801401200	       -0.1725955600	        0.0131731600	        0.0308059100	        0.0636811400	
        3.0000000000	      -11.4831259400	        7.2108052300	       -3.4693924300	      -18.8877428400	       -0.7758449100	      -20.0030252500	      -15.1177627400	        7.7520105400	       -2.5694353200	       -5.3654432500	        5.2128567600	       -1.9752414000	        6.1184830300	       -0.9831236500	        0.0455752700	       11.1788535500	      -38.2983025600	       -2.2472562100	      -21.4632469900	       16.6818924600	        4.0753791500	      -69.3811753900	       11.1104549300	        0.0245842900	       15.5148347400	       -2.3578853100	        2.0126247500	        0.4555986400	       -1.6560406600	       -0.0699605800	       -0.1612640200	       -0.0193839900	       -0.0483965000	       -0.0202898200	       -1.0165633500	       -1.5613163800	        0.1240663600	       -0.1638421600	        0.0179599500	        0.0386160900	        0.0668940500	
        3.0100000000	       -9.8248273700	        7.0994946700	       -3.6357923700	      -21.0030554200	        1.3715814900	      -17.3945228000	      -15.2928341800	        5.9980076100	       -2.9355108000	       -3.1620205800	        4.5669338100	       -2.4168453800	        6.1509295100	       -0.8335264400	        0.0517729900	       11.1877232500	      -35.6408697500	       -2.0431944900	      -20.4033657100	       15.1176504400	        3.8644443600	      -68.9138571700	       11.0480731800	        0.0228276900	       18.1001493500	       -2.6445391600	        1.8768414300	        0.2770895100	       -1.6394070100	       -0.0739495400	       -0.1871473900	       -0.0183925100	       -0.0439627300	       -0.0166478000	       -1.0877485600	       -1.5106883900	        0.1677962800	       -0.1511185900	        0.0229670600	        0.0463648200	        0.0689054200	
        3.0200000000	       -7.9354665400	        6.9596512300	       -3.8204158400	      -23.2184647100	        2.3180240600	      -13.6870513000	      -15.8253744800	        3.6452066600	       -3.2072585200	       -0.8606985500	        3.6103689100	       -2.8348532300	        5.7251170500	       -0.5440753300	        0.0559945900	       11.2635491300	      -32.8128466500	       -1.7600696900	      -18.9665517200	       13.4710419700	        3.5559352400	      -67.8553726300	       10.9294146100	        0.0205864700	       20.9886162500	       -2.7879395800	        1.8196896300	        0.1169117300	       -1.6380117700	       -0.0786793500	       -0.2112106100	       -0.0176655700	       -0.0401180000	       -0.0133554100	       -1.1611228000	       -1.4710712400	        0.2036789400	       -0.1378247000	        0.0276354500	        0.0525578400	        0.0693781700	
        3.0300000000	       -5.6955122700	        6.7802463800	       -3.8821276400	      -25.0517570000	        2.7571533900	       -9.3226842500	      -16.3281994300	        0.9761322200	       -3.3534906800	        1.6264445500	        2.4620221400	       -3.1966055200	        4.9066758400	       -0.1411101600	        0.0581570200	       11.4162821500	      -29.7408328800	       -1.4118871600	      -17.1570276300	       11.7457038400	        3.1539559100	      -66.1184798400	       10.7295877900	        0.0181100500	       23.8999893400	       -2.8351149500	        1.8426164800	       -0.0172599100	       -1.6540845900	       -0.0844806000	       -0.2333370600	       -0.0172855300	       -0.0370033300	       -0.0104637400	       -1.2227529700	       -1.4639685500	        0.2241678500	       -0.1273843200	        0.0313251200	        0.0556321600	        0.0680215700	
        3.0400000000	       -3.3131466300	        6.4131257700	       -3.7249907600	      -26.2669923500	        3.3308849400	       -4.7028063700	      -16.6400120400	       -1.8009653800	       -3.3615019000	        4.2818132200	        1.2123229300	       -3.4804521900	        3.8065759700	        0.3324996400	        0.0583680900	       11.6383475000	      -26.3309154900	       -1.0228920400	      -14.9953818100	        9.9375262900	        2.6706343400	      -63.6115539800	       10.4195969300	        0.0158307900	       26.5006338400	       -2.8611414700	        1.9272584000	       -0.1223159500	       -1.6879777800	       -0.0913935500	       -0.2540360900	       -0.0172377300	       -0.0346283100	       -0.0079078900	       -1.2543667700	       -1.5069992800	        0.2234713100	       -0.1219102400	        0.0333975700	        0.0542608600	        0.0645638300	
